<svg width="128" height="128" xmlns="http://www.w3.org/2000/svg">
  <defs>
    <linearGradient id="grad1" x1="0%" y1="0%" x2="100%" y2="100%">
      <stop offset="0%" style="stop-color:#667eea;stop-opacity:1" />
      <stop offset="100%" style="stop-color:#764ba2;stop-opacity:1" />
    </linearGradient>
  </defs>
  <rect width="128" height="128" rx="20" fill="url(#grad1)"/>
  
  <!-- 车辆图标 -->
  <g transform="translate(20, 30)">
    <rect x="0" y="10" width="25" height="15" rx="3" fill="#fff" opacity="0.9"/>
    <circle cx="7" cy="28" r="4" fill="#fff"/>
    <circle cx="18" cy="28" r="4" fill="#fff"/>
  </g>
  
  <g transform="translate(83, 30)">
    <rect x="0" y="10" width="25" height="15" rx="3" fill="#fff" opacity="0.9"/>
    <circle cx="7" cy="28" r="4" fill="#fff"/>
    <circle cx="18" cy="28" r="4" fill="#fff"/>
  </g>
  
  <!-- 路径线条 -->
  <path d="M 32 40 Q 64 20 96 40" stroke="#fff" stroke-width="3" fill="none" opacity="0.6" stroke-dasharray="5,5"/>
  
  <!-- 节点 -->
  <circle cx="32" cy="75" r="8" fill="#4ade80"/>
  <circle cx="64" cy="85" r="8" fill="#60a5fa"/>
  <circle cx="96" cy="75" r="8" fill="#f472b6"/>
  
  <!-- 连接线 -->
  <line x1="32" y1="75" x2="64" y2="85" stroke="#fff" stroke-width="2" opacity="0.5"/>
  <line x1="64" y1="85" x2="96" y2="75" stroke="#fff" stroke-width="2" opacity="0.5"/>
  
  <!-- 文字标识 -->
  <text x="64" y="115" font-family="Arial" font-size="14" fill="#fff" text-anchor="middle" font-weight="bold">调度系统</text>
</svg>
